<?xml version="1.0" encoding="UTF-8" standalone="no"?>
<!-- Created with Inkscape (http://www.inkscape.org/) -->

<svg
   xmlns:dc="http://purl.org/dc/elements/1.1/"
   xmlns:cc="http://creativecommons.org/ns#"
   xmlns:rdf="http://www.w3.org/1999/02/22-rdf-syntax-ns#"
   xmlns:svg="http://www.w3.org/2000/svg"
   xmlns="http://www.w3.org/2000/svg"
   xmlns:sodipodi="http://sodipodi.sourceforge.net/DTD/sodipodi-0.dtd"
   xmlns:inkscape="http://www.inkscape.org/namespaces/inkscape"
   width="193.01218"
   height="22.353081"
   viewBox="0 0 51.067806 5.9142524"
   version="1.1"
   id="svg4652"
   inkscape:version="0.92.0 r15299"
   sodipodi:docname="panattoni.svg">
  <defs
     id="defs4646">
    <clipPath
       id="clipPath4259"
       clipPathUnits="userSpaceOnUse">
      <path
         inkscape:connector-curvature="0"
         id="path4257"
         d="M 433.44,27 H 585 V 51.12 H 433.44 Z" />
    </clipPath>
    <clipPath
       id="clipPath4239"
       clipPathUnits="userSpaceOnUse">
      <path
         inkscape:connector-curvature="0"
         id="path4237"
         d="M 436.939,29.165 H 580.948 V 45.181 H 436.939 Z" />
    </clipPath>
    <clipPath
       id="clipPath4183"
       clipPathUnits="userSpaceOnUse">
      <path
         inkscape:connector-curvature="0"
         id="path4181"
         d="M 433.44,27 H 585 V 51.12 H 433.44 Z" />
    </clipPath>
  </defs>
  <sodipodi:namedview
     id="base"
     pagecolor="#ffffff"
     bordercolor="#666666"
     borderopacity="1.0"
     inkscape:pageopacity="0.0"
     inkscape:pageshadow="2"
     inkscape:zoom="2.1684126"
     inkscape:cx="65.04285"
     inkscape:cy="9.9623325"
     inkscape:document-units="mm"
     inkscape:current-layer="layer1"
     showgrid="false"
     fit-margin-top="0"
     fit-margin-left="0"
     fit-margin-right="0"
     fit-margin-bottom="0"
     units="px"
     inkscape:window-width="1280"
     inkscape:window-height="744"
     inkscape:window-x="-4"
     inkscape:window-y="-4"
     inkscape:window-maximized="1" />
  <metadata
     id="metadata4649">
    <rdf:RDF>
      <cc:Work
         rdf:about="">
        <dc:format>image/svg+xml</dc:format>
        <dc:type
           rdf:resource="http://purl.org/dc/dcmitype/StillImage" />
        <dc:title></dc:title>
      </cc:Work>
    </rdf:RDF>
  </metadata>
  <g
     inkscape:label="Layer 1"
     inkscape:groupmode="layer"
     id="layer1"
     transform="translate(-37.342432,-214.53558)">
    <path
       d="m 40.708296,216.17925 v 3.59848 h -1.396207 -1.396062 v -3.59848 h -0.441304 v 4.06046 h 1.837366 1.837511 v -4.06046 z"
       style="fill:#68737a;fill-opacity:1;fill-rule:nonzero;stroke:none;stroke-width:0.14823519"
       id="path4251"
       inkscape:connector-curvature="0" />
    <g
       id="g4921"
       transform="translate(0.13229052,-0.1322883)">
      <path
         inkscape:connector-curvature="0"
         id="path4265"
         style="fill:#003263;fill-opacity:1;fill-rule:nonzero;stroke:none;stroke-width:0.14823519"
         d="m 39.375951,219.52642 h 0.805242 v -4.11188 l -0.805242,0.84828 z" />
      <path
         inkscape:connector-curvature="0"
         id="path4271"
         style="fill:#003263;fill-opacity:1;fill-rule:nonzero;stroke:none;stroke-width:0.14823519"
         d="m 39.880538,215.2403 -0.700639,-0.44014 -0.700784,0.44014 0.700784,0.44014 z" />
      <path
         inkscape:connector-curvature="0"
         id="path4277"
         style="fill:#003263;fill-opacity:1;fill-rule:nonzero;stroke:none;stroke-width:0.14823519"
         d="m 38.983674,216.26288 -0.805097,-0.84828 v 4.11188 h 0.805097 z" />
    </g>
    <g
       id="g4916"
       style="fill:#003263;fill-opacity:1"
       transform="translate(0.13229052,-0.1322883)">
      <path
         inkscape:connector-curvature="0"
         id="path4189"
         style="fill:#003263;fill-opacity:1;fill-rule:nonzero;stroke:none;stroke-width:0.14823519"
         d="m 44.190713,217.86768 c 0,-0.84312 0,-0.99464 -0.01029,-1.16754 -0.01043,-0.18382 -0.05172,-0.27028 -0.222101,-0.30804 -0.04129,-0.0109 -0.129088,-0.0162 -0.17545,-0.0162 -0.02072,0 -0.04143,-0.0109 -0.04143,-0.0325 0,-0.0325 0.02593,-0.0432 0.08258,-0.0432 0.232387,0 0.54214,0.0162 0.583576,0.0162 0.113586,0 0.413053,-0.0162 0.650511,-0.0162 0.645439,0 0.877826,0.22705 0.960408,0.30804 0.113586,0.1136 0.258176,0.35672 0.258176,0.64337 0,0.76744 -0.536925,1.2863 -1.270162,1.2863 -0.02579,0 -0.08258,0 -0.108515,-0.005 -0.02564,0 -0.05665,-0.0109 -0.05665,-0.0379 0,-0.0432 0.03101,-0.0485 0.139375,-0.0485 0.500849,0 0.893329,-0.38387 0.893329,-0.88119 0,-0.17836 -0.0155,-0.54039 -0.28918,-0.83236 -0.273678,-0.29196 -0.588647,-0.27027 -0.707449,-0.27027 -0.0878,0 -0.175594,0.0108 -0.221956,0.0325 -0.031,0.0108 -0.04143,0.0487 -0.04143,0.10268 v 2.22163 c 0,0.51886 0,0.94596 0.02593,1.17301 0.0155,0.15667 0.04636,0.27558 0.201383,0.29727 0.07215,0.0108 0.185736,0.0215 0.232243,0.0215 0.031,0 0.04129,0.0162 0.04129,0.0325 0,0.027 -0.02579,0.0432 -0.08258,0.0432 -0.283965,0 -0.609365,-0.0162 -0.635153,-0.0162 -0.0155,0 -0.340758,0.0162 -0.495634,0.0162 -0.05679,0 -0.08258,-0.0108 -0.08258,-0.0432 0,-0.0162 0.01029,-0.0325 0.04129,-0.0325 0.04651,0 0.10837,-0.0108 0.154877,-0.0215 0.103299,-0.0217 0.129088,-0.1406 0.149805,-0.29727 0.02579,-0.22705 0.02579,-0.65415 0.02579,-1.17301 z" />
      <path
         inkscape:connector-curvature="0"
         id="path4195"
         style="fill:#003263;fill-opacity:1;fill-rule:nonzero;stroke:none;stroke-width:0.14823519"
         d="m 50.035209,218.83924 c 0.02231,0 0.02231,-0.0139 0.01782,-0.0326 l -0.423628,-1.26051 c -0.02217,-0.0699 -0.04462,-0.0699 -0.06694,0 l -0.392334,1.26051 c -0.009,0.0234 0,0.0326 0.01333,0.0326 z m -0.46376,-1.86719 c 0.0536,-0.15424 0.07142,-0.18215 0.09808,-0.18215 0.0268,0 0.04462,0.0234 0.09808,0.16805 0.06693,0.17745 0.766994,2.10546 1.039078,2.81496 0.160527,0.41557 0.289905,0.49019 0.383497,0.5181 0.06693,0.0235 0.133869,0.0281 0.178347,0.0281 0.0268,0 0.04462,0.005 0.04462,0.0281 0,0.0281 -0.04013,0.0373 -0.0891,0.0373 -0.06694,0 -0.392479,0 -0.700204,-0.009 -0.08476,-0.005 -0.133724,-0.005 -0.133724,-0.0328 0,-0.0187 0.01333,-0.0279 0.03115,-0.0326 0.0268,-0.009 0.05346,-0.0514 0.0268,-0.12604 l -0.414791,-1.14843 c -0.0088,-0.0188 -0.01782,-0.0281 -0.04013,-0.0281 h -0.95867 c -0.02231,0 -0.03578,0.0141 -0.04462,0.0375 l -0.267593,0.82614 c -0.04013,0.11678 -0.06244,0.22886 -0.06244,0.31289 0,0.0933 0.09374,0.13529 0.169509,0.13529 h 0.04448 c 0.03129,0 0.04462,0.009 0.04462,0.0281 0,0.0281 -0.02666,0.0373 -0.06679,0.0373 -0.107066,0 -0.298887,-0.014 -0.347857,-0.014 -0.04911,0 -0.294396,0.014 -0.503892,0.014 -0.05795,0 -0.08475,-0.009 -0.08475,-0.0373 0,-0.0187 0.01782,-0.0281 0.04013,-0.0281 0.03115,0 0.09359,-0.005 0.129378,-0.009 0.20515,-0.0281 0.294251,-0.20552 0.374514,-0.43893 z" />
      <path
         inkscape:connector-curvature="0"
         id="path4201"
         style="fill:#003263;fill-opacity:1;fill-rule:nonzero;stroke:none;stroke-width:0.14823519"
         d="m 53.865803,219.74954 c 0.009,0.38281 0.05346,0.50415 0.173856,0.54146 0.08475,0.0235 0.182838,0.0281 0.223115,0.0281 0.02217,0 0.03564,0.009 0.03564,0.0281 0,0.0281 -0.0268,0.0373 -0.08041,0.0373 -0.254119,0 -0.432466,-0.0139 -0.472598,-0.0139 -0.04013,0 -0.227461,0.0139 -0.42812,0.0139 -0.04448,0 -0.07143,-0.005 -0.07143,-0.0373 0,-0.0186 0.01347,-0.0281 0.03579,-0.0281 0.03564,0 0.115903,-0.005 0.182838,-0.0281 0.111412,-0.0326 0.133724,-0.16805 0.133724,-0.59272 l 0.0045,-2.67498 c 0,-0.182 0.01333,-0.23341 0.04911,-0.23341 0.03564,0 0.111413,0.10267 0.156036,0.14939 0.06694,0.0793 0.731353,0.83099 1.417939,1.60116 0.441594,0.49489 0.927666,1.06441 1.070372,1.2185 l -0.04911,-2.37148 c -0.0043,-0.30349 -0.03564,-0.40617 -0.173856,-0.44363 -0.08026,-0.0187 -0.182838,-0.0232 -0.218479,-0.0232 -0.03129,0 -0.03578,-0.0141 -0.03578,-0.0328 0,-0.0279 0.03578,-0.0326 0.08925,-0.0326 0.200659,0 0.414646,0.014 0.46376,0.014 0.04911,0 0.196168,-0.014 0.379006,-0.014 0.04911,0 0.08026,0.005 0.08026,0.0326 0,0.0187 -0.01782,0.0328 -0.04897,0.0328 -0.02231,0 -0.05346,0 -0.107066,0.014 -0.147198,0.0328 -0.165018,0.13544 -0.165018,0.41557 l -0.0088,2.73549 c 0,0.30819 -0.009,0.33139 -0.04028,0.33139 -0.03564,0 -0.0891,-0.0513 -0.3254,-0.29863 -0.04911,-0.0467 -0.691221,-0.73302 -1.163964,-1.26522 -0.517221,-0.58347 -1.021113,-1.17164 -1.16382,-1.33969 z" />
      <path
         inkscape:connector-curvature="0"
         id="path4207"
         style="fill:#003263;fill-opacity:1;fill-rule:nonzero;stroke:none;stroke-width:0.14823519"
         d="m 60.768733,218.83924 c 0.02246,0 0.02246,-0.0139 0.01797,-0.0326 l -0.423629,-1.26051 c -0.02231,-0.0699 -0.04462,-0.0699 -0.06693,0 l -0.392479,1.26051 c -0.0088,0.0234 0,0.0326 0.01347,0.0326 z m -0.463615,-1.86719 c 0.05346,-0.15424 0.07128,-0.18215 0.09808,-0.18215 0.02666,0 0.04448,0.0234 0.09808,0.16805 0.06693,0.17745 0.766994,2.10546 1.038933,2.81496 0.160672,0.41557 0.289905,0.49019 0.383497,0.5181 0.06693,0.0235 0.133869,0.0281 0.178347,0.0281 0.0268,0 0.04477,0.005 0.04477,0.0281 0,0.0281 -0.04013,0.0373 -0.08925,0.0373 -0.06694,0 -0.392335,0 -0.700204,-0.009 -0.08461,-0.005 -0.133724,-0.005 -0.133724,-0.0328 0,-0.0187 0.01333,-0.0279 0.03115,-0.0326 0.0268,-0.009 0.05361,-0.0514 0.0268,-0.12604 l -0.414646,-1.14843 c -0.009,-0.0188 -0.01797,-0.0281 -0.04013,-0.0281 h -0.958815 c -0.02231,0 -0.03564,0.0141 -0.04462,0.0375 l -0.267448,0.82614 c -0.04028,0.11678 -0.06244,0.22886 -0.06244,0.31289 0,0.0933 0.09359,0.13529 0.169364,0.13529 h 0.04462 c 0.03115,0 0.04462,0.009 0.04462,0.0281 0,0.0281 -0.0268,0.0373 -0.06693,0.0373 -0.106922,0 -0.298742,-0.014 -0.347857,-0.014 -0.04897,0 -0.294251,0.014 -0.503892,0.014 -0.05795,0 -0.08475,-0.009 -0.08475,-0.0373 0,-0.0187 0.01782,-0.0281 0.04013,-0.0281 0.03129,0 0.09374,-0.005 0.129378,-0.009 0.20515,-0.0281 0.294396,-0.20552 0.374659,-0.43893 z" />
      <path
         inkscape:connector-curvature="0"
         id="path4213"
         style="fill:#003263;fill-opacity:1;fill-rule:nonzero;stroke:none;stroke-width:0.14823519"
         d="m 65.205822,219.03068 c 0,0.44818 0,0.81689 0.02246,1.01299 0.01318,0.13529 0.03999,0.23797 0.173856,0.25678 0.0623,0.009 0.160527,0.0186 0.200659,0.0186 0.02666,0 0.03564,0.014 0.03564,0.0281 0,0.0232 -0.02246,0.0373 -0.07143,0.0373 -0.245281,0 -0.526203,-0.0141 -0.548515,-0.0141 -0.02217,0 -0.303088,0.0141 -0.436812,0.0141 -0.04912,0 -0.07143,-0.009 -0.07143,-0.0373 0,-0.0141 0.0088,-0.0281 0.03564,-0.0281 0.04013,0 0.09359,-0.009 0.13358,-0.0186 0.08939,-0.0188 0.111702,-0.12149 0.129522,-0.25678 0.02231,-0.1961 0.02231,-0.56481 0.02231,-1.01299 v -1.97472 l -0.660073,0.009 c -0.276575,0.005 -0.383497,0.0375 -0.454778,0.14955 -0.04911,0.0793 -0.06259,0.11193 -0.07577,0.14469 -0.01333,0.0373 -0.0268,0.0467 -0.04462,0.0467 -0.01347,0 -0.02231,-0.0141 -0.02231,-0.042 0,-0.0467 0.08925,-0.44818 0.09808,-0.48564 0.009,-0.0279 0.0268,-0.0886 0.04462,-0.0886 0.03115,0 0.07563,0.0467 0.196168,0.056 0.129377,0.0139 0.298742,0.0234 0.352203,0.0234 h 1.672347 c 0.285414,0 0.405809,-0.0467 0.441449,-0.0467 0.02231,0 0.02231,0.0281 0.02231,0.056 0,0.14014 -0.01333,0.46228 -0.01333,0.51355 0,0.042 -0.01347,0.0607 -0.03115,0.0607 -0.02246,0 -0.03129,-0.0139 -0.03564,-0.0793 l -0.0046,-0.0514 c -0.01782,-0.13999 -0.120395,-0.24738 -0.548515,-0.25678 l -0.561844,-0.009 z" />
      <path
         inkscape:connector-curvature="0"
         id="path4219"
         style="fill:#003263;fill-opacity:1;fill-rule:nonzero;stroke:none;stroke-width:0.14823519"
         d="m 70.035102,219.03068 c 0,0.44818 0,0.81689 0.02246,1.01299 0.01318,0.13529 0.03999,0.23797 0.173856,0.25678 0.0623,0.009 0.160527,0.0186 0.200659,0.0186 0.02666,0 0.03564,0.014 0.03564,0.0281 0,0.0232 -0.02231,0.0373 -0.07143,0.0373 -0.245136,0 -0.526058,-0.0141 -0.548515,-0.0141 -0.02231,0 -0.303088,0.0141 -0.436812,0.0141 -0.04926,0 -0.07143,-0.009 -0.07143,-0.0373 0,-0.0141 0.0088,-0.0281 0.03564,-0.0281 0.04013,0 0.09359,-0.009 0.13358,-0.0186 0.08939,-0.0188 0.111702,-0.12149 0.129522,-0.25678 0.02217,-0.1961 0.02217,-0.56481 0.02217,-1.01299 v -1.97472 l -0.659928,0.009 c -0.276575,0.005 -0.383497,0.0375 -0.454778,0.14955 -0.04911,0.0793 -0.06259,0.11193 -0.07577,0.14469 -0.01333,0.0373 -0.0268,0.0467 -0.04462,0.0467 -0.01347,0 -0.02231,-0.0141 -0.02231,-0.042 0,-0.0467 0.08925,-0.44818 0.09808,-0.48564 0.0088,-0.0279 0.0268,-0.0886 0.04462,-0.0886 0.03115,0 0.07563,0.0467 0.196168,0.056 0.129377,0.0139 0.298887,0.0234 0.352203,0.0234 h 1.672347 c 0.285414,0 0.405809,-0.0467 0.441449,-0.0467 0.02217,0 0.02217,0.0281 0.02217,0.056 0,0.14014 -0.01318,0.46228 -0.01318,0.51355 0,0.042 -0.01347,0.0607 -0.03115,0.0607 -0.02246,0 -0.03129,-0.0139 -0.03564,-0.0793 l -0.0046,-0.0514 c -0.01782,-0.13999 -0.120395,-0.24738 -0.548515,-0.25678 l -0.561844,-0.009 z" />
      <path
         inkscape:connector-curvature="0"
         id="path4225"
         style="fill:#003263;fill-opacity:1;fill-rule:nonzero;stroke:none;stroke-width:0.14823519"
         d="m 75.070545,220.27238 c 0.401462,0 1.230754,-0.24282 1.230754,-1.60116 0,-1.12038 -0.650945,-1.72265 -1.355496,-1.72265 -0.744682,0 -1.302179,0.51355 -1.302179,1.53579 0,1.08777 0.624432,1.78802 1.426921,1.78802 m -0.09359,-3.48245 c 1.003292,0 1.752611,0.66279 1.752611,1.75055 0,1.04575 -0.704696,1.90935 -1.779269,1.90935 -1.221917,0 -1.730155,-0.99434 -1.730155,-1.83473 0,-0.75622 0.526203,-1.82517 1.756813,-1.82517" />
      <path
         inkscape:connector-curvature="0"
         id="path4231"
         style="fill:#003263;fill-opacity:1;fill-rule:nonzero;stroke:none;stroke-width:0.14823519"
         d="m 79.601807,219.74954 c 0.009,0.38281 0.05361,0.50415 0.174001,0.54146 0.08475,0.0235 0.182693,0.0281 0.22297,0.0281 0.02231,0 0.03564,0.009 0.03564,0.0281 0,0.0281 -0.0268,0.0373 -0.08041,0.0373 -0.254119,0 -0.432322,-0.0139 -0.472598,-0.0139 -0.04013,0 -0.227461,0.0139 -0.42812,0.0139 -0.04448,0 -0.07128,-0.005 -0.07128,-0.0373 0,-0.0186 0.01347,-0.0281 0.03564,-0.0281 0.03564,0 0.116048,-0.005 0.182838,-0.0281 0.111557,-0.0326 0.133724,-0.16805 0.133724,-0.59272 l 0.0045,-2.67498 c 0,-0.182 0.01347,-0.23341 0.04911,-0.23341 0.03564,0 0.111413,0.10267 0.156036,0.14939 0.06694,0.0793 0.731353,0.83099 1.418084,1.60116 0.441449,0.49489 0.927521,1.06441 1.070227,1.2185 l -0.04911,-2.37148 c -0.0043,-0.30349 -0.03564,-0.40617 -0.173856,-0.44363 -0.08026,-0.0187 -0.182838,-0.0232 -0.218479,-0.0232 -0.03129,0 -0.03579,-0.0141 -0.03579,-0.0328 0,-0.0279 0.03579,-0.0326 0.08925,-0.0326 0.200659,0 0.414646,0.014 0.46376,0.014 0.04897,0 0.196168,-0.014 0.379151,-0.014 0.04882,0 0.08026,0.005 0.08026,0.0326 0,0.0187 -0.01797,0.0328 -0.04911,0.0328 -0.02231,0 -0.05361,0 -0.107066,0.014 -0.147198,0.0328 -0.165018,0.13544 -0.165018,0.41557 l -0.0088,2.73549 c 0,0.30819 -0.009,0.33139 -0.03999,0.33139 -0.03593,0 -0.08939,-0.0513 -0.32569,-0.29863 -0.04897,-0.0467 -0.691221,-0.73302 -1.163964,-1.26522 -0.517221,-0.58347 -1.021113,-1.17164 -1.16382,-1.33969 z" />
      <path
         inkscape:connector-curvature="0"
         id="path4245"
         style="fill:#003263;fill-opacity:1;fill-rule:nonzero;stroke:none;stroke-width:0.14823519"
         d="m 85.773557,219.03068 c 0,0.44818 0,0.81689 0.02217,1.01299 0.01347,0.13529 0.04028,0.23797 0.174,0.25678 0.06244,0.009 0.160527,0.0186 0.200659,0.0186 0.0268,0 0.03564,0.014 0.03564,0.0281 0,0.0232 -0.02217,0.0373 -0.07128,0.0373 -0.245136,0 -0.526203,-0.0141 -0.548515,-0.0141 -0.02231,0 -0.303233,0.0141 -0.436957,0.0141 -0.04897,0 -0.07143,-0.009 -0.07143,-0.0373 0,-0.0141 0.009,-0.0281 0.03564,-0.0281 0.04028,0 0.09374,-0.009 0.133725,-0.0186 0.08939,-0.0188 0.111557,-0.12149 0.129522,-0.25678 0.02231,-0.1961 0.02231,-0.56481 0.02231,-1.01299 v -0.82174 c 0,-0.72816 0,-0.8589 -0.009,-1.00829 -0.009,-0.15864 -0.05346,-0.23797 -0.151544,-0.26148 -0.04911,-0.0139 -0.107066,-0.0186 -0.138216,-0.0186 -0.01797,0 -0.03564,-0.009 -0.03564,-0.0279 0,-0.0281 0.02217,-0.0373 0.07128,-0.0373 0.147053,0 0.427975,0.014 0.450286,0.014 0.02231,0 0.303379,-0.014 0.437103,-0.014 0.04897,0 0.07128,0.009 0.07128,0.0373 0,0.0187 -0.01782,0.0279 -0.03564,0.0279 -0.03129,0 -0.0581,0.005 -0.111557,0.0141 -0.120395,0.0234 -0.156036,0.10268 -0.164873,0.26603 -0.009,0.14939 -0.009,0.28013 -0.009,1.00829 z" />
      <path
         inkscape:connector-curvature="0"
         id="path4283"
         style="fill:#003263;fill-opacity:1;fill-rule:nonzero;stroke:none;stroke-width:0.14823519"
         d="m 87.489354,217.20251 c 0.01739,0.0106 0.05795,0.0167 0.08982,0.0167 0.02028,0 0.03767,-0.002 0.05795,-0.0167 0.02898,-0.0212 0.05216,-0.0652 0.05216,-0.13043 0,-0.094 -0.05071,-0.16532 -0.14488,-0.16532 -0.0087,0 -0.04346,0 -0.05505,0.006 z m -0.07679,-0.0789 c 0,-0.10313 0.0014,-0.14712 -0.0014,-0.18503 -0.0029,-0.0364 -0.02318,-0.0455 -0.06809,-0.047 -0.0087,0 -0.01304,-0.005 -0.01304,-0.0121 0,-0.006 0.0072,-0.009 0.01739,-0.009 h 0.02463 c 0.01014,0 0.07679,0.003 0.08113,0.003 0.02898,0 0.05071,-0.003 0.09997,-0.003 0.104314,0 0.14488,0.0228 0.162266,0.0364 0.02463,0.0197 0.0565,0.0576 0.0565,0.11981 0,0.0592 -0.01884,0.11376 -0.101416,0.19869 0.06954,0.091 0.123148,0.17442 0.172407,0.2275 0.02463,0.0258 0.05361,0.0561 0.08838,0.0561 0.01159,0 0.01449,0.006 0.01449,0.0121 0,0.005 -0.0029,0.009 -0.01738,0.009 h -0.02014 c -0.03347,0 -0.07403,-0.002 -0.101561,-0.0167 -0.03477,-0.0197 -0.06664,-0.0622 -0.113006,-0.1274 -0.03477,-0.0485 -0.06954,-0.10314 -0.08838,-0.13195 H 87.48941 v 0.0743 c 0,0.15016 0.0058,0.15926 0.01304,0.16836 0.01014,0.0121 0.03912,0.0106 0.05505,0.0106 0.0087,0 0.01304,0.003 0.01449,0.0106 -0.0014,0.008 -0.0058,0.0121 -0.01594,0.0121 h -0.02753 c -0.01014,0 -0.07099,-0.003 -0.07534,-0.003 -0.0043,0 -0.07099,0.003 -0.08258,0.003 h -0.02608 c -0.0072,0 -0.01304,-0.005 -0.01304,-0.0106 0,-0.006 0.0058,-0.0106 0.01594,-0.0106 0.05071,-0.002 0.0594,-0.005 0.0623,-0.047 0.0029,-0.0318 0.0029,-0.0789 0.0029,-0.18503 z m 0.654857,0.0819 c 0.0014,-0.2912 -0.214423,-0.53084 -0.486797,-0.53084 -0.278169,0 -0.492591,0.23964 -0.489694,0.53084 -0.0029,0.28666 0.211525,0.53084 0.492592,0.53084 0.269476,0 0.485347,-0.24418 0.483899,-0.53084 m -1.054726,0.002 c 0.0014,-0.33215 0.254989,-0.59606 0.567929,-0.59606 0.311492,0 0.565032,0.26391 0.565032,0.59606 0,0.3276 -0.25354,0.59302 -0.566481,0.59302 -0.311491,0 -0.565031,-0.26542 -0.56648,-0.59302" />
    </g>
  </g>
</svg>
