<?xml version="1.0" encoding="utf-8"?>
<!-- Generator: Adobe Illustrator 16.0.0, SVG Export Plug-In . SVG Version: 6.00 Build 0)  -->
<!DOCTYPE svg PUBLIC "-//W3C//DTD SVG 1.1//EN" "http://www.w3.org/Graphics/SVG/1.1/DTD/svg11.dtd">
<svg version="1.1" id="Warstwa_1" xmlns="http://www.w3.org/2000/svg" xmlns:xlink="http://www.w3.org/1999/xlink" x="0px" y="0px"
	 width="372.779px" height="63.082px" viewBox="0 0 372.779 63.082" enable-background="new 0 0 372.779 63.082"
	 xml:space="preserve">
<path fill="#D26414" d="M54.523,20.519c0,2.665,0.526,4.644,1.589,5.91c1.053,1.274,2.344,1.917,3.871,1.917
	c1.458,0,2.673-0.588,3.642-1.756c0.971-1.169,1.459-3.094,1.459-5.758c0-2.497-0.504-4.346-1.505-5.551
	c-1-1.207-2.237-1.812-3.711-1.812c-1.534,0-2.81,0.588-3.825,1.779C55.027,16.434,54.523,18.189,54.523,20.519 M48.3,9.042h5.864
	v3.489c0.756-1.198,1.787-2.168,3.085-2.91C58.547,8.873,59.991,8.5,61.571,8.5c2.757,0,5.101,1.084,7.018,3.244
	c1.925,2.162,2.887,5.178,2.887,9.041c0,3.963-0.971,7.049-2.902,9.248c-1.939,2.199-4.291,3.298-7.048,3.298
	c-1.313,0-2.504-0.26-3.573-0.779c-1.062-0.526-2.184-1.419-3.368-2.687v11.972H48.3V9.042z"/>
<path fill="#D26414" d="M82.486,32.796h-6.284V9.041h5.833v3.377c1.001-1.597,1.902-2.65,2.696-3.154
	C85.533,8.76,86.434,8.5,87.449,8.5c1.436,0,2.81,0.396,4.139,1.191l-1.946,5.475c-1.055-0.68-2.039-1.023-2.948-1.023
	c-0.885,0-1.626,0.236-2.237,0.726c-0.618,0.481-1.092,1.359-1.442,2.626c-0.352,1.268-0.527,3.926-0.527,7.965V32.796z"/>
<path fill="#D26414" d="M94.299,9.041h6.284v23.755h-6.284V9.041z M94.299,0h6.284v5.819h-6.284V0z"/>
<path fill="#D26414" d="M106.555,9.042h5.796v3.237c2.068-2.52,4.543-3.779,7.406-3.779c1.52,0,2.841,0.312,3.955,0.939
	c1.123,0.625,2.039,1.572,2.758,2.84c1.037-1.268,2.168-2.215,3.375-2.84c1.205-0.627,2.496-0.939,3.87-0.939
	c1.741,0,3.224,0.359,4.43,1.068c1.207,0.702,2.107,1.75,2.703,3.115c0.435,1.016,0.648,2.658,0.648,4.926v15.188h-6.284V19.221
	c0-2.359-0.214-3.879-0.648-4.566c-0.581-0.895-1.475-1.344-2.681-1.344c-0.886,0-1.711,0.268-2.489,0.809
	c-0.771,0.535-1.328,1.322-1.672,2.359c-0.345,1.039-0.52,2.674-0.52,4.91v11.409h-6.285V19.777c0-2.313-0.113-3.803-0.336-4.474
	c-0.221-0.672-0.571-1.169-1.038-1.497c-0.474-0.329-1.106-0.496-1.917-0.496c-0.97,0-1.84,0.26-2.61,0.786
	c-0.779,0.519-1.337,1.274-1.673,2.261c-0.337,0.984-0.505,2.611-0.505,4.895v11.546h-6.283V9.042L106.555,9.042z"/>
<path fill="#D26414" d="M161.877,18.885c-0.046-1.825-0.512-3.207-1.404-4.154c-0.895-0.947-1.985-1.42-3.269-1.42
	c-1.375,0-2.505,0.504-3.397,1.504c-0.895,0.993-1.337,2.352-1.321,4.07H161.877z M161.518,25.238l6.269,1.045
	c-0.809,2.299-2.077,4.047-3.817,5.246c-1.733,1.207-3.909,1.803-6.521,1.803c-4.131,0-7.185-1.344-9.171-4.046
	c-1.565-2.162-2.353-4.896-2.353-8.187c0-3.94,1.031-7.024,3.094-9.254c2.054-2.229,4.657-3.345,7.804-3.345
	c3.535,0,6.322,1.168,8.369,3.505c2.039,2.337,3.016,5.909,2.932,10.728H152.37c0.046,1.864,0.55,3.314,1.521,4.346
	c0.969,1.039,2.183,1.558,3.627,1.558c0.984,0,1.809-0.267,2.48-0.802C160.67,27.291,161.182,26.429,161.518,25.238"/>
<g>
	<path fill="#626262" d="M185.974,24.092l3.259,0.52c-0.376,2.833-1.312,4.994-2.822,6.482c-1.503,1.498-3.312,2.238-5.421,2.238
		c-2.561,0-4.67-1.047-6.326-3.139c-1.657-2.1-2.484-5.191-2.484-9.301c0-4.131,0.836-7.223,2.508-9.293
		c1.671-2.062,3.817-3.101,6.433-3.101c2.024,0,3.728,0.628,5.115,1.88c1.388,1.26,2.269,3.137,2.66,5.643l-3.213,0.603
		c-0.314-1.61-0.858-2.817-1.641-3.612c-0.774-0.801-1.71-1.198-2.807-1.198c-1.633,0-2.983,0.718-4.056,2.161
		c-1.066,1.436-1.604,3.719-1.604,6.857c0,3.229,0.514,5.574,1.541,7.025c1.021,1.443,2.339,2.168,3.942,2.168
		c1.257,0,2.331-0.48,3.22-1.443C185.169,27.62,185.736,26.123,185.974,24.092"/>
	<path fill="#626262" d="M194.179,20.916c0,3.076,0.561,5.359,1.68,6.857c1.127,1.504,2.521,2.252,4.179,2.252
		c1.558,0,2.899-0.756,4.011-2.275c1.119-1.512,1.68-3.787,1.68-6.834c0-3.055-0.567-5.33-1.688-6.834
		c-1.127-1.497-2.515-2.245-4.179-2.245c-1.572,0-2.914,0.756-4.026,2.26C194.731,15.601,194.179,17.877,194.179,20.916
		 M190.782,20.916c0-4.1,0.866-7.193,2.599-9.278c1.728-2.092,3.919-3.138,6.572-3.138c2.6,0,4.785,1.046,6.533,3.138
		c1.756,2.085,2.63,5.093,2.63,9.034c0,4.268-0.859,7.445-2.584,9.529c-1.726,2.093-3.918,3.13-6.579,3.13
		c-2.623,0-4.808-1.047-6.549-3.139C191.656,28.094,190.782,25.001,190.782,20.916"/>
	<path fill="#626262" d="M212.996,32.796V9.041h2.991v3.377c0.72-1.314,1.602-2.291,2.637-2.94c1.043-0.649,2.24-0.978,3.589-0.978
		c1.043,0,2.019,0.205,2.906,0.618c0.89,0.412,1.611,0.947,2.155,1.611c0.552,0.664,0.958,1.526,1.227,2.581
		c0.27,1.061,0.406,2.688,0.406,4.879v14.607h-3.328V18.342c0-1.74-0.145-3.016-0.452-3.825c-0.299-0.802-0.767-1.427-1.401-1.863
		c-0.639-0.442-1.373-0.664-2.209-0.664c-1.587,0-2.854,0.597-3.795,1.772c-0.944,1.175-1.42,3.199-1.42,6.062v12.974h-3.306V32.796
		z"/>
	<path fill="#626262" d="M232.719,25.703l3.28-0.625c0.192,1.672,0.729,2.916,1.597,3.726c0.865,0.81,2.022,1.222,3.458,1.222
		c1.44,0,2.553-0.359,3.336-1.062c0.79-0.709,1.181-1.61,1.181-2.694c0-0.947-0.338-1.672-1.013-2.199
		c-0.46-0.351-1.587-0.802-3.366-1.336c-2.576-0.795-4.302-1.466-5.168-2.017c-0.867-0.549-1.541-1.291-2.025-2.215
		c-0.475-0.924-0.713-1.977-0.713-3.152c0-2.032,0.652-3.682,1.948-4.949c1.304-1.268,3.113-1.9,5.421-1.9
		c1.449,0,2.722,0.267,3.827,0.787c1.104,0.519,1.939,1.221,2.53,2.1c0.583,0.885,0.987,2.145,1.212,3.779l-3.236,0.541
		c-0.299-2.596-1.718-3.894-4.248-3.894c-1.434,0-2.508,0.29-3.213,0.862c-0.698,0.574-1.051,1.307-1.051,2.199
		c0,0.887,0.338,1.573,1.005,2.086c0.406,0.297,1.602,0.771,3.596,1.428c2.745,0.886,4.518,1.58,5.329,2.092
		c0.805,0.52,1.435,1.214,1.887,2.107c0.444,0.886,0.677,1.939,0.677,3.162c0,2.268-0.729,4.1-2.171,5.504
		c-1.449,1.398-3.422,2.101-5.92,2.101C236.185,33.354,233.47,30.805,232.719,25.703"/>
	<path fill="#626262" d="M260.239,29.193l0.452,3.559c-0.912,0.236-1.74,0.358-2.47,0.358c-1.158,0-2.085-0.229-2.791-0.679
		c-0.697-0.459-1.182-1.078-1.449-1.871c-0.261-0.787-0.392-2.367-0.392-4.719v-13.67h-2.423v-3.13h2.423V3.154l3.306-2.413v8.301
		h3.344v3.13h-3.344v13.891c0,1.283,0.093,2.115,0.291,2.481c0.284,0.542,0.812,0.81,1.596,0.81
		C259.158,29.354,259.641,29.301,260.239,29.193"/>
	<path fill="#626262" d="M263.337,32.796V9.041h2.99v3.598c0.768-1.665,1.465-2.772,2.102-3.322
		c0.638-0.542,1.351-0.816,2.146-0.816c1.104,0,2.24,0.436,3.39,1.297l-1.119,3.742c-0.828-0.588-1.625-0.878-2.408-0.878
		c-0.705,0-1.35,0.253-1.933,0.741c-0.583,0.488-0.997,1.176-1.233,2.055c-0.422,1.541-0.629,3.176-0.629,4.901v12.438H263.337z"/>
	<path fill="#626262" d="M288.726,32.796v-3.488c-0.76,1.344-1.664,2.352-2.692,3.018c-1.034,0.672-2.199,1.008-3.504,1.008
		c-1.549,0-2.859-0.412-3.956-1.238c-1.097-0.832-1.825-1.877-2.192-3.146c-0.36-1.267-0.545-2.993-0.545-5.192V9.041h3.298v13.174
		c0,2.451,0.122,4.084,0.376,4.908c0.244,0.834,0.697,1.498,1.364,1.993c0.667,0.497,1.427,0.749,2.284,0.749
		c1.588,0,2.893-0.648,3.903-1.947c0.874-1.115,1.304-3.168,1.304-6.146V9.041h3.327v23.755H288.726z"/>
	<path fill="#626262" d="M309.705,24.092l3.261,0.52c-0.376,2.833-1.312,4.994-2.822,6.482c-1.503,1.498-3.313,2.238-5.421,2.238
		c-2.562,0-4.67-1.047-6.326-3.139c-1.657-2.1-2.485-5.191-2.485-9.301c0-4.131,0.836-7.223,2.509-9.293
		c1.671-2.062,3.817-3.101,6.434-3.101c2.024,0,3.727,0.628,5.115,1.88c1.387,1.26,2.269,3.137,2.66,5.643l-3.214,0.603
		c-0.313-1.61-0.857-2.817-1.641-3.612c-0.773-0.801-1.711-1.198-2.807-1.198c-1.634,0-2.983,0.718-4.058,2.161
		c-1.064,1.436-1.603,3.719-1.603,6.857c0,3.229,0.514,5.574,1.541,7.025c1.02,1.443,2.339,2.168,3.94,2.168
		c1.258,0,2.331-0.48,3.222-1.443C308.9,27.62,309.469,26.123,309.705,24.092"/>
	<path fill="#626262" d="M323.14,29.193l0.452,3.559c-0.912,0.236-1.74,0.358-2.47,0.358c-1.157,0-2.085-0.229-2.79-0.679
		c-0.698-0.459-1.183-1.078-1.449-1.871c-0.262-0.787-0.392-2.367-0.392-4.719v-13.67h-2.424v-3.13h2.424V3.154l3.306-2.413v8.301
		h3.343v3.13h-3.343v13.891c0,1.283,0.092,2.115,0.291,2.481c0.283,0.542,0.812,0.81,1.595,0.81
		C322.059,29.354,322.542,29.301,323.14,29.193"/>
	<path fill="#626262" d="M326.237,9.041h3.307v23.755h-3.307V9.041z M326.237,0h3.307v4.635h-3.307V0z"/>
	<path fill="#626262" d="M336.781,20.916c0,3.076,0.561,5.359,1.68,6.857c1.127,1.504,2.522,2.252,4.179,2.252
		c1.558,0,2.898-0.756,4.012-2.275c1.119-1.512,1.679-3.787,1.679-6.834c0-3.055-0.566-5.33-1.687-6.834
		c-1.128-1.497-2.516-2.245-4.18-2.245c-1.571,0-2.914,0.756-4.025,2.26C337.333,15.601,336.781,17.877,336.781,20.916
		 M333.385,20.916c0-4.1,0.867-7.193,2.601-9.278c1.726-2.092,3.918-3.138,6.57-3.138c2.601,0,4.785,1.046,6.533,3.138
		c1.756,2.085,2.63,5.093,2.63,9.034c0,4.268-0.858,7.445-2.584,9.529c-1.726,2.093-3.918,3.13-6.579,3.13
		c-2.621,0-4.809-1.047-6.548-3.139C334.259,28.094,333.385,25.001,333.385,20.916"/>
	<path fill="#626262" d="M355.599,32.796V9.041h2.99v3.377c0.721-1.314,1.603-2.291,2.638-2.94c1.043-0.649,2.239-0.978,3.589-0.978
		c1.043,0,2.019,0.205,2.906,0.618c0.89,0.412,1.609,0.947,2.155,1.611c0.552,0.664,0.958,1.526,1.227,2.581
		c0.269,1.061,0.406,2.688,0.406,4.879v14.607h-3.328V18.342c0-1.74-0.146-3.016-0.452-3.825c-0.299-0.802-0.767-1.427-1.404-1.863
		c-0.636-0.442-1.371-0.664-2.208-0.664c-1.587,0-2.853,0.597-3.795,1.772c-0.942,1.175-1.419,3.199-1.419,6.062v12.974h-3.305
		V32.796z"/>
</g>
<path fill="#D26414" d="M34.121,20.73c-9.017,0.446-17.53,2.758-23.971,8.201c-1.905,1.932-1.905,3.471,0,5.402
	c12.244,11.015,52.144,13.797,99.788,14.271v8.619c-40.472-0.497-79.562-1.702-99.922-12.523c-16.571-9.748-9.705-21.015,0-26.396
	c7.973-4.24,16.021-5.855,24.104-6.195V20.73z"/>
<path fill="#D26414" d="M367.263,51.917c-0.651,0-1.383,0.186-2.192,0.556c-1.594,0.696-2.392,1.688-2.392,2.974v0.113
	c0,0.835,0.951,1.527,2.854,2.08c1.927,0.465,3.226,0.882,3.896,1.252v0.038c-0.464,0.427-1.058,0.64-1.778,0.64
	c-0.896,0-1.995-0.312-3.294-0.939c-0.516,0.395-0.771,0.83-0.771,1.308v0.188c0,0.363,0.121,0.668,0.366,0.912
	c0,0.383,1.164,0.652,3.492,0.811c0.59,0,1.221-0.061,1.893-0.18c2.297-0.445,3.444-1.312,3.444-2.599
	c0-0.784-0.393-1.415-1.176-1.892c-0.848-0.414-2.217-0.838-4.104-1.271c-1.08-0.307-1.755-0.68-2.023-1.119
	c0-0.207,0.906-0.451,2.72-0.733c0.604-0.138,0.989-0.349,1.158-0.63c0-0.133-0.085-0.408-0.254-0.829
	c-0.102-0.452-0.609-0.679-1.525-0.679H367.263L367.263,51.917z M353.851,54.863c0-0.477,0.068-0.841,0.207-1.092
	c0-0.245,0.194-0.367,0.584-0.367l0.292,0.037c0.677,0.295,1.016,0.822,1.016,1.582c0,0.188-0.05,0.439-0.149,0.753
	c-0.598,0.445-1.036,0.668-1.317,0.668C354.061,56.138,353.851,55.609,353.851,54.863 M355.009,51.164
	c-0.658,0-1.424,0.244-2.297,0.734c-0.81,0.309-1.215,1.085-1.215,2.334v0.282l0.188,3.05c1.789,2.673,3.608,4.01,5.46,4.01h0.386
	c0.282,0,0.648-0.05,1.102-0.15c1.374-0.477,2.416-1.295,3.125-2.455c0-0.201,0.173-0.342,0.519-0.424
	c0.05-0.271,0.141-0.52,0.272-0.744c0.739-0.979,1.109-1.682,1.109-2.108v-0.038h-0.075c-0.05,0.271-0.159,0.405-0.328,0.405
	c-0.089-0.024-0.14-0.069-0.15-0.132l0.038-0.15v-0.386l-0.076-0.085h-0.075c-0.414,0-1.021,0.445-1.816,1.337
	c-1.286,1.819-2.5,2.729-3.643,2.729c-0.821,0-1.497-0.438-2.023-1.31v-0.038c1.951-0.771,2.928-1.785,2.928-3.04
	c0-0.301-0.075-0.722-0.227-1.261C357.386,52.018,356.32,51.164,355.009,51.164 M347.318,53.744c-0.22,0-0.638,0.777-1.252,2.334
	c-0.438,1.225-0.954,1.982-1.544,2.277v-0.15c0-0.438,0.038-0.781,0.112-1.025c0.428-1.387,0.641-2.27,0.641-2.646
	c-0.364-0.494-0.726-0.742-1.082-0.742c-0.283,0-0.571,0.166-0.866,0.498c-0.785,1.219-1.177,2.732-1.177,4.547v0.404l0.038,0.584
	c0.119,1.18,0.447,1.77,0.987,1.77l0.188-0.037c0.563-0.232,0.899-0.348,1.007-0.348l0.423,0.074
	c0.496-0.308,1.312-1.086,2.448-2.334l0.264,0.404c0.597,1.788,1.374,2.682,2.334,2.682h0.48c0.156-0.111,0.234-0.271,0.234-0.479
	v-0.312c0-0.406-0.18-0.812-0.536-1.213c-0.516-1.486-0.875-3.389-1.082-5.705c-0.259-0.414-0.625-0.619-1.103-0.619L347.318,53.744
	z M339.562,43.652c-0.346,0-0.738,0.135-1.178,0.405c-0.112,0.946-0.248,1.421-0.404,1.421l0.312,0.207
	c0.062,0.553,0.132,0.829,0.206,0.829c-0.319,1.649-0.479,3.278-0.479,4.885v1.103c0,2.258,0.342,5.215,1.025,8.865
	c0.357,0.201,0.608,0.361,0.753,0.48c0.564-0.151,0.936-0.227,1.11-0.227c0.282-0.068,0.423-0.353,0.423-0.848v-0.424
	c-0.602-3.068-0.902-5.484-0.902-7.248V52.5l0.272-5.817c0-0.872-0.091-1.714-0.272-2.522c0-0.339-0.238-0.509-0.716-0.509
	L339.562,43.652L339.562,43.652z M329.104,58.685c0-0.991,0.357-1.941,1.072-2.852c1.161-1.199,1.965-1.867,2.41-2.006h0.085
	l0.036,0.037c0,0.784-0.566,1.877-1.702,3.276c-0.614,1.054-1.225,1.581-1.826,1.581h-0.037L329.104,58.685z M334.366,50.929
	c-0.414,0-0.825,0.162-1.232,0.49c-1.493,0.65-2.812,1.441-3.953,2.371c-1.839,2.103-2.758,3.861-2.758,5.279l0.037,0.631
	c0.309,1.055,0.97,1.582,1.985,1.582c1.066,0,2.011-0.431,2.834-1.289c0.671-0.771,1.462-1.857,2.372-3.258l0.234,0.292
	c0.74,1.819,1.252,2.999,1.534,3.539c0.552,0.854,1.177,1.408,1.872,1.666c0.133,0,0.378-0.116,0.734-0.349
	c0.371,0,0.556-0.147,0.556-0.442v-0.233c0-0.347-0.21-0.836-0.631-1.471c-0.709-0.908-1.249-2.025-1.619-3.35
	c-0.526-2.379-0.79-3.784-0.79-4.217c-0.17-0.83-0.498-1.244-0.988-1.244h-0.188V50.929z M325.207,51.841l-0.403,0.039
	c-0.282,0-0.634,0.596-1.056,1.787c-0.538,2.158-1.188,3.488-1.947,3.99l-0.349-0.479l-2.023-3.719
	c-1.337,0-2.005,0.387-2.005,1.158v0.301c0,0.49,0.674,1.758,2.023,3.804c1.065,2.083,1.998,3.125,2.795,3.125
	c0.91,0,1.677-0.966,2.297-2.899c0.679-2.873,1.28-4.529,1.808-4.97l-0.074-0.349c0.012-0.125,0.115-0.457,0.312-0.998
	c-0.296-0.526-0.638-0.791-1.026-0.791H325.207z M307.483,50.223c-0.553,0-1.161,0.487-1.826,1.459
	c-0.414,0.76-0.872,1.378-1.374,1.854h-0.038l-0.037-0.037l0.112-0.349c0-0.146-0.461-0.28-1.383-0.405
	c-0.107,0-0.16,0.057-0.16,0.17c-0.025,0.068-0.301,0.265-0.829,0.584c0,3.149-0.172,5.354-0.518,6.607l0.441,0.79
	c0,0.231,0.116,0.349,0.349,0.349h0.557c0.257,0.024,0.386,0.078,0.386,0.16c0.057-0.019,0.332-0.533,0.828-1.544
	c1.199-3.1,2.24-5.188,3.125-6.269h0.038l0.828,4.97c0.231,1.123,0.537,2.071,0.913,2.843c0,0.295,0.396,0.442,1.194,0.442h0.075
	c0.553,0,0.828-0.214,0.828-0.64v-0.076c-0.05-0.477-0.115-0.715-0.197-0.715c-0.281-1.094-0.682-3.398-1.194-6.918
	c-0.271-1.144-0.571-2.101-0.904-2.871C308.697,50.559,308.294,50.423,307.483,50.223 M299.068,50.684
	c-0.734,0-1.103,0.528-1.103,1.582c0,1.255,0.025,2.187,0.075,2.795l-0.348,4.622c0,1.117,0.193,1.845,0.583,2.184
	c0.051,0,0.076-0.078,0.076-0.234c0.182,0.332,0.382,0.498,0.602,0.498h0.038l0.282-0.301c0.4-0.082,0.706-0.19,0.913-0.328
	l0.076-4.067v-1.101c0-1.84-0.148-3.594-0.443-5.264C299.821,50.812,299.57,50.684,299.068,50.684 M298.993,46.843
	c-0.785,0-1.273,0.305-1.469,0.914v0.207l0.038,0.15c0,0.4,0.373,0.627,1.12,0.678h0.271c1.023-0.183,1.535-0.516,1.535-0.998
	l-0.113-0.471c-0.126-0.32-0.512-0.48-1.157-0.48H298.993z M281.928,41.912c-0.296,0-0.629,0.127-0.998,0.385
	c-0.089,0-0.165,0.539-0.234,1.619c-0.063,5.887-0.176,8.83-0.339,8.83c-0.954,0.603-1.433,1.069-1.433,1.401l0.151,0.565
	l-0.038,0.479l1.158,0.791l0.037,0.941l-0.058,3.511c0,1.028,0.122,1.795,0.367,2.297c0.132,0.112,0.435,0.229,0.904,0.349
	l0.16-0.037l0.593-0.244c0.05-0.391,0.116-0.612,0.197-0.67c0.245-0.201,0.366-0.563,0.366-1.092l-0.121-2.646
	c0-0.476,0.076-0.875,0.233-1.195c0.435,0.089,0.96,0.248,1.582,0.479c1.041,0.439,2.938,1.297,5.687,2.57l0.518-0.197
	c0.451,0,0.728-0.11,0.828-0.33c0.05-0.553,0.116-0.828,0.198-0.828v-0.037c-0.184-0.383-1.397-1.062-3.645-2.043
	c-0.552-0.346-0.894-0.518-1.024-0.518h-0.312c-0.395-0.377-1.016-0.693-1.863-0.951c-1.147-0.369-1.828-0.77-2.043-1.195v-0.075
	c0.37-0.28,0.686-0.479,0.941-0.593c0.822-0.346,1.798-0.646,2.928-0.904c1.324-0.389,2.27-0.82,2.833-1.299l-0.038-0.037
	c0-0.369,0.041-0.689,0.123-0.96c-0.302-0.282-0.747-0.424-1.337-0.424l-1.158,0.151l-4.329,1.393
	c0.2-1.738,0.303-3.508,0.303-5.309v-0.387c0-1.361-0.063-2.511-0.189-3.445c0-0.168-0.263-0.284-0.79-0.348h-0.158V41.912z
	 M274.474,50.223c-0.555,0-1.161,0.487-1.826,1.459c-0.415,0.76-0.873,1.378-1.375,1.854h-0.037l-0.038-0.037l0.113-0.349
	c0-0.146-0.461-0.28-1.385-0.405c-0.105,0-0.159,0.057-0.159,0.17c-0.025,0.068-0.303,0.265-0.828,0.584
	c0,3.149-0.174,5.354-0.52,6.607l0.443,0.79c0,0.231,0.116,0.349,0.348,0.349h0.557c0.258,0.024,0.386,0.078,0.386,0.16
	c0.057-0.019,0.333-0.533,0.829-1.544c1.197-3.1,2.239-5.188,3.125-6.269h0.037l0.828,4.97c0.231,1.123,0.535,2.071,0.912,2.843
	c0,0.295,0.398,0.442,1.195,0.442h0.075c0.552,0,0.829-0.214,0.829-0.64v-0.076c-0.051-0.477-0.117-0.715-0.198-0.715
	c-0.282-1.094-0.681-3.398-1.195-6.918c-0.27-1.144-0.57-2.101-0.902-2.871C275.688,50.559,275.282,50.423,274.474,50.223
	 M266.059,50.684c-0.734,0-1.104,0.528-1.104,1.582c0,1.255,0.025,2.187,0.076,2.795l-0.349,4.622c0,1.117,0.193,1.845,0.584,2.184
	c0.05,0,0.073-0.078,0.073-0.234c0.184,0.332,0.385,0.498,0.604,0.498h0.037l0.282-0.301c0.4-0.082,0.706-0.19,0.913-0.328
	l0.074-4.067v-1.101c0-1.84-0.146-3.594-0.44-5.264C266.812,50.812,266.561,50.684,266.059,50.684 M265.982,46.843
	c-0.784,0-1.274,0.305-1.468,0.914v0.207l0.036,0.15c0,0.4,0.373,0.627,1.12,0.678h0.273c1.021-0.183,1.534-0.516,1.534-0.998
	l-0.113-0.471c-0.126-0.32-0.511-0.48-1.158-0.48H265.982z M255.958,46.212c0,0.139-0.032,0.207-0.094,0.207
	c-0.132,0-0.314-0.057-0.546-0.17v0.039c-0.113,0.295-0.336,0.441-0.669,0.441c-0.207,0.734-0.382,2.145-0.527,4.227
	c-0.062,5.535-0.125,8.303-0.188,8.303c0.23,0.634,0.348,1.13,0.348,1.488l-0.037,0.365l0.367,0.188
	c0.408,0.428,0.733,0.641,0.979,0.641h0.273c0.477-0.477,0.95-1.177,1.421-2.1c0.797-2.021,1.39-3.281,1.779-3.783l0.593,2.833
	c0.27,0.892,0.612,1.579,1.026,2.062c0.715,0.635,1.337,0.95,1.862,0.95c0.364-0.169,0.706-0.485,1.026-0.95v-0.037
	c-0.44-0.383-0.766-0.77-0.979-1.158c-0.312-0.539-0.616-1.393-0.912-2.561c-0.37-2.354-0.717-3.922-1.035-4.705
	c-0.169-0.578-0.396-0.865-0.679-0.865h-0.188c-0.169,0-0.486,0.135-0.95,0.402c-0.308,0-0.622,0.355-0.941,1.064
	c-0.76,2.146-1.353,3.386-1.778,3.718l-0.037-1.194c0-3.15,0.207-6.125,0.621-8.925c0-0.118-0.221-0.278-0.659-0.479H255.958z
	 M248.578,43.766c-0.527,0-0.957,0.21-1.289,0.631c-0.452,3.457-0.678,6.278-0.678,8.462l0.047,0.508h-0.329l-0.123,0.075
	c-0.088,0.32-0.229,0.479-0.423,0.479c0-0.062-0.289-0.101-0.866-0.112c-1.092,0-1.792,0.339-2.099,1.017v0.113
	c0.257,0.659,0.692,0.988,1.308,0.988c1.374,0,2.178,0.123,2.41,0.367c0.183,0,0.273,0.854,0.273,2.561
	c0,1.889,0.339,2.98,1.016,3.275c0.157-0.176,0.292-0.264,0.405-0.264l0.986,0.074c0.184-0.062,0.273-0.525,0.273-1.393v-0.387
	c0-0.384-0.091-0.685-0.273-0.904c0.157-0.27,0.236-0.576,0.236-0.922l-0.236-2.484c0.184,0,0.273-0.025,0.273-0.075
	c2.04-0.157,3.304-0.302,3.794-0.433c1.104-0.151,1.656-0.637,1.656-1.459c0-0.553-0.288-0.829-0.866-0.829l-0.64,0.038
	c-1.351,0.345-2.582,0.518-3.699,0.518l-0.52-0.037v-1.619c0-1.787,0.251-4.229,0.754-7.322c-0.243-0.577-0.654-0.866-1.232-0.866
	H248.578z M229.979,54.863c0-0.477,0.067-0.841,0.207-1.092c0-0.245,0.192-0.367,0.583-0.367l0.292,0.037
	c0.678,0.295,1.017,0.822,1.017,1.582c0,0.188-0.051,0.439-0.15,0.753c-0.597,0.445-1.034,0.668-1.317,0.668
	C230.189,56.138,229.979,55.609,229.979,54.863 M231.136,51.164c-0.657,0-1.425,0.244-2.297,0.734
	c-0.81,0.309-1.214,1.085-1.214,2.334v0.282l0.188,3.05c1.788,2.673,3.606,4.01,5.459,4.01h0.386c0.282,0,0.65-0.05,1.101-0.15
	c1.375-0.477,2.416-1.295,3.125-2.455c0-0.201,0.175-0.342,0.52-0.424c0.05-0.271,0.141-0.52,0.271-0.744
	c0.74-0.979,1.111-1.682,1.111-2.108v-0.038h-0.076c-0.05,0.271-0.16,0.405-0.329,0.405c-0.088-0.024-0.138-0.069-0.149-0.132
	l0.038-0.15v-0.386l-0.075-0.085h-0.076c-0.414,0-1.019,0.445-1.815,1.337c-1.287,1.819-2.502,2.729-3.644,2.729
	c-0.822,0-1.497-0.438-2.023-1.31v-0.038c1.951-0.771,2.929-1.785,2.929-3.04c0-0.301-0.076-0.722-0.228-1.261
	C233.515,52.018,232.448,51.164,231.136,51.164 M224.717,50.835c-0.23,0-0.454,0.104-0.668,0.311c-0.22,0-0.329,0.373-0.329,1.12
	l0.282,3.831v0.234c0,0.526-0.057,1.092-0.17,1.693c-0.193,0-0.812-0.576-1.854-1.73c-0.86-0.849-1.528-1.301-2.005-1.355
	c-0.201,0.145-0.662,0.346-1.386,0.604c-0.088,0-0.233,0.354-0.44,1.062c-0.222,0.496-0.483,0.816-0.791,0.96
	c-0.184-0.207-0.273-0.543-0.273-1.007l0.198-2.833c-0.082-0.665-0.37-0.998-0.866-0.998h-0.386l-0.405,0.094
	c-0.684,0.452-1.024,1.371-1.024,2.759v0.441c0,1.48,0.325,3.088,0.979,4.82c0.527,0.99,0.913,1.486,1.158,1.486
	c0.389,0,0.885-0.244,1.486-0.734c0.451-0.357,1.075-1.571,1.873-3.643c0.271,0.156,0.649,0.457,1.14,0.903
	c1.5,1.655,2.714,2.485,3.643,2.485c0.473,0,0.927-0.154,1.365-0.463c0.295,0,0.442-0.607,0.442-1.826l-0.075-1.062
	c-0.37-2.314-0.556-3.721-0.556-4.217v-0.49l0.112-1.252c-0.258-0.796-0.688-1.193-1.29-1.193H224.717z"/>
</svg>
